<?xml version="1.0" encoding="iso-8859-1"?>
<!-- Generator: Adobe Illustrator 16.0.0, SVG Export Plug-In . SVG Version: 6.00 Build 0)  -->
<!DOCTYPE svg PUBLIC "-//W3C//DTD SVG 1.1//EN" "http://www.w3.org/Graphics/SVG/1.1/DTD/svg11.dtd">
<svg version="1.1" id="Capa_1" xmlns="http://www.w3.org/2000/svg" xmlns:xlink="http://www.w3.org/1999/xlink" x="0px" y="0px"
	 width="54.82px" height="54.821px" viewBox="0 0 54.82 54.821" style="enable-background:new 0 0 54.82 54.821;"
	 xml:space="preserve">
<g>
	<polygon points="6.828,12.875 3.805,53.65 0,53.65 2.83,19.215 	"/>
	<polygon points="50.041,19.51 52.285,53.65 54.82,53.65 52.431,23.998 	"/>
	<path d="M18.435,8.974L11.022,53.65h15.9V1.17L18.435,8.974z M25.362,45.26l-11.973,4.486l0.683-4.682l11.291-4.584V45.26z
		 M25.362,38.238l-11.12,4.583l0.682-4.682l10.438-4.682V38.238z M25.362,31.216l-10.096,4.388l0.683-4.683l9.413-4.485V31.216z
		 M25.362,24.289l-8.876,4.585l0.682-4.683l8.193-4.683L25.362,24.289L25.362,24.289z M25.362,17.167l-7.853,4.684l0.683-4.682
		l7.17-4.781V17.167z M25.362,10.242l-6.829,4.583l0.975-4.583l5.854-4.78V10.242z"/>
	<path d="M34.628,7.022L27.799,1.17V53.65h15.412L34.628,7.022z M28.776,5.462l5.071,3.609l0.928,4.195l-5.999-3.513V5.462z
		 M28.776,12.388l5.999,2.902l0.73,4.023l-6.729-2.633V12.388z M28.776,19.313l6.729,2.539l0.924,4.388l-7.653-2.634V19.313z
		 M28.776,26.238l7.653,2.636l0.98,5.143l-8.633-2.998L28.776,26.238L28.776,26.238z M28.776,33.164l8.876,3.172l0.959,4.793
		l-9.834-3.307L28.776,33.164L28.776,33.164z M28.776,40.09l9.835,3.561l1.104,4.472l-10.938-3.277V40.09z"/>
	<path d="M7.608,13.266L4.487,53.65h5.852l0.808-4.976l-5.4-1.415l0.195-2.293l5.533,1.693l0.257-1.585l-5.687-1.651l0.195-2.293
		l5.818,1.953l0.259-1.607l-6.015-1.762l0.195-2.293l6.142,2.084l0.265-1.626l-6.271-1.933l0.195-2.294l6.395,2.275l0.269-1.648
		l-6.663-2.111l0.196-2.293l6.63,2.415v0.98l1.27-7.81v-9.072L7.608,13.266z M13.8,30.58l-6.533-2.342l0.195-2.294l6.338,2.587
		V30.58z M13.948,26.825l-6.354-2.28l0.196-2.293l6.158,2.525V26.825z M14.095,23.069L7.95,20.875l0.195-2.293l5.951,2.439
		L14.095,23.069L14.095,23.069z M14.242,19.313L8.096,17.12l0.195-2.294l5.952,2.439V19.313z"/>
	<path d="M49.553,19.02l-7.316,2.926l-1.268,15.802l0.68,3.36l8.15-2.014l0.145,2.658l-7.825,1.676l0.332,1.638l7.59-1.512
		l0.236,2.864l-7.345,1.03l1.256,6.2h7.219L49.553,19.02z M42.888,23.536l5.997-2.203l0.105,2.516l-6.266,1.891L42.888,23.536z
		 M42.562,27.052L49.19,25l0.13,2.258l-6.921,1.996L42.562,27.052z M42.236,30.567l7.086-2.203l0.108,2.387l-7.357,2.019
		L42.236,30.567z M41.911,34.083l7.627-2.203l0.088,2.429l-7.878,1.978L41.911,34.083z M41.423,39.801l0.161-2.201l8.042-2.203
		l0.173,2.319L41.423,39.801z"/>
</g>
<g>
</g>
<g>
</g>
<g>
</g>
<g>
</g>
<g>
</g>
<g>
</g>
<g>
</g>
<g>
</g>
<g>
</g>
<g>
</g>
<g>
</g>
<g>
</g>
<g>
</g>
<g>
</g>
<g>
</g>
</svg>
